<svg id="Calque_1" data-name="Calque 1" xmlns="http://www.w3.org/2000/svg" viewBox="0 0 758.1 758.36"><defs><style>.cls-1{fill:#fff;}</style></defs><path class="cls-1" d="M485.61,120.07c36.32,0,72.65-.23,109,.08,25.45.21,47.87,9.31,67.87,24.84a117.91,117.91,0,0,1,44.7,77.83c.94,7.14.75,14.19.76,21.26.09,67.31-.07,134.63.13,201.94.06,18.13,3.37,35.84,11.67,52.12,8.56,16.78,20.29,30.48,38.85,37.2,6.89,2.5,14,2,20.78,2.36,22.27,1.27,42.71,7.56,60.38,20.89,11.86,8.95,21.21,20.57,23.95,35.91,2.86,16-1.38,30.33-11.66,42.9-14.69,18-34.53,26.34-56.64,30.62a119.28,119.28,0,0,1-21,2c-18.25.29-32.29,8.44-43.8,22.51-11,13.4-17.06,28.79-20.38,45.29a142.39,142.39,0,0,0-2.32,27.45c-.13,27.62-8.28,53.05-24.42,75.24-12.73,17.52-29.1,31.09-51.25,35.8-10.75,2.29-21.46,1.9-32.31.76a105.07,105.07,0,0,1-29.47-7.18C550,861.4,533,849.12,525.66,827.07c-3.49-10.42-2.62-21-1-31.8,1.6-10.53,4.32-20.54,9.52-29.65,4.79-8.41,11.13-15.57,20.93-18.78,4.15-1.35,9.25-.11,12.3-4.75a44.63,44.63,0,0,0,7.35-21.65c.49-7.24,1.37-14.71-1.63-21.89-3.93-9.4-11.37-14.91-20.32-18.5-11.74-4.7-24.05-7.07-36.7-8.2-12.82-1.14-25.66-2.56-38.5-1.76-18.79,1.18-37.75,1.33-55.88,7.8-11.33,4-21.22,9.89-24.15,22.2-3.21,13.5-3.26,27.18,4.42,39.71,2.22,3.61,5,6.31,9.78,6.21,5.47-.11,9.78,3,13.85,6.16,8.85,6.82,13.71,16.51,17.18,26.68a93.75,93.75,0,0,1,5.05,32.58c-.44,18-8.47,32.34-22.47,43.87-14.55,12-31.36,18.51-49.47,21.42-18.9,3-37.78,2.4-55.31-6.9-15.84-8.4-27.92-20.93-37.5-35.79a126.88,126.88,0,0,1-17.88-45.94,115.37,115.37,0,0,1-2.27-25c.62-18.12-2.6-35.78-10.52-52-8.86-18.11-21-33.49-41.88-39.38a56.21,56.21,0,0,0-15-1.86,114,114,0,0,1-50.94-12.2c-14.53-7.33-26.5-18-33.52-33A46.44,46.44,0,0,1,110,586.51c8.34-20.69,24.68-32.67,44.6-40.69a120.37,120.37,0,0,1,36.76-8.07c9.51-.69,19.19-.4,28.37-5.45,11.83-6.52,20.39-15.68,27.39-26.79,8.29-13.17,12.61-27.79,14.68-43a112.66,112.66,0,0,0,1.25-15.22c0-72-.19-143.95.1-215.93.08-18.74,6.46-36.06,15.46-52.37a111,111,0,0,1,18.9-24.68,115.47,115.47,0,0,1,31.13-22.24c16.27-7.93,33.27-12.21,51.5-12.08C415.3,120.25,450.46,120.07,485.61,120.07Zm-.27,209.21c13.08-1,26.37-1.19,39.58-3.13,11.71-1.72,23.17-3.93,33.76-9.41,17.4-9,18.63-20.85,15.08-37.32-2.32-10.74-12.1-14.93-21.45-18.31-11.77-4.25-24.1-5.79-36.51-7.32-9.86-1.21-19.79-1.09-29.53-1.24a242.2,242.2,0,0,0-30,1.28c-12.29,1.34-24.48,2.93-36,7.37-8.38,3.23-16.5,7.16-21.11,16-3.05,5.84-3.1,11.79-3.2,18a20.5,20.5,0,0,0,6.73,16.09c5.94,5.58,13.23,8.5,20.83,10.75C443.65,328,464.47,328,485.34,329.28ZM485.91,537c8-.67,17.39.18,26.86-.82,12.77-1.35,25.42-2.78,37.54-7.22,15.9-5.83,26.46-14.07,24.87-33.49-.83-10-5.64-16.74-13.72-21.24-16.88-9.4-35.8-11.15-54.48-12-16.52-.73-33.15-1.06-49.74.59-12.46,1.25-24.79,2.79-36.52,7.21-7.53,2.83-14.72,6.23-19.72,13.27-4.56,6.44-5,13.4-5.07,20.83,0,8.31,3.54,14.4,10.25,18.81,14,9.17,30.1,10.86,46.08,13C463,537.42,473.74,536.89,485.91,537Z" transform="translate(-106.44 -119.99)"/></svg>