<?xml version="1.0" encoding="utf-8"?>
<!-- Generator: Adobe Illustrator 25.0.1, SVG Export Plug-In . SVG Version: 6.00 Build 0)  -->
<svg version="1.1" baseProfile="basic" id="Calque_1"
	 xmlns="http://www.w3.org/2000/svg" xmlns:xlink="http://www.w3.org/1999/xlink" x="0px" y="0px" viewBox="0 0 1000 1000"
	 xml:space="preserve">
<style type="text/css">
	.st0{fill:#FEFEFE;}
	.st1{fill:#FE8E43;}
</style>
<g>
	<path class="st0" d="M918.18,719.84c-10.26,4-21.16,5.55-31.88,5.16c-34.55-1.25-57.44,16.3-74.09,44.34
		c-11.01,18.54-17.13,38.72-18.5,60.3c-0.25,3.91-0.87,7.81-1.33,11.71c-16.56-0.74-32.85,1.25-49.02,4.63
		c-35.97,7.53-70.13,20.86-104.82,32.53c-28.65,9.64-57.03,20.88-88.25,18.03c2.69-22.76,8.4-44.28,25.78-60.76
		c6.31-5.99,13.66-10.19,22.66-10.27c4.08-0.04,6.81-2.3,8.56-5.25c11.45-19.36,15.15-40.05,5.84-60.95
		c-6.55-14.7-21.2-20.42-35.71-24.78c-17.12-5.15-34.79-6.89-52.6-8.37c-20.87-1.73-41.63-0.77-62.35,0.57
		c-18.76,1.22-37.51,3.89-54.9,11.76c-13.27,6.01-22.73,15.46-25.23,30.67c-2.57,15.58-2.43,30.73,5.04,45.14
		c3.35,6.47,7.24,10.95,15.76,11.54c10.44,0.71,18.44,7.6,24.92,15.52c8.46,10.33,14.13,22.11,16.33,35.41
		c-7.45,0.31-14.89,0.6-22.31-0.65c-29.61-4.97-56.51-17.12-82.29-31.84c-16.58-9.47-33.58-17.39-52.92-18.24
		c-39.38-1.73-55.85,9.29-70.59,40.37c-2.25,4.74-4.3,9.57-6.44,14.35c-2.85-10.49-4.02-21.2-3.75-32.02
		c0.58-23.66-3.24-46.57-13.33-67.96c-11.58-24.54-27.78-44.83-55.2-53.23c-5.9-1.81-11.88-2.27-18.02-2.4
		c-29.47-0.62-57.41-7.08-82.06-23.94c-17.32-11.85-30.86-27-35.68-48.18c-5.13-22.55,0.8-42.56,15.57-59.93
		c9.83-11.56,21.79-20.59,35.59-27.06c19.89,16.72,43.02,28.03,66.11,39.35c13.63,6.68,28.21,11.17,42.59,15.76
		c26.42,8.43,53.78,12.36,81.5,13.66c40.77,1.91,80.61-4.49,119.93-14.3c17.52-4.37,35.19-8.23,52.41-13.95
		c15.12-5.02,30.83-8.22,45.99-13.15c25.15-8.17,49.99-17.32,75.1-25.63c44.6-14.76,88.82-30.78,134.59-41.8
		c26.81-6.46,53.53-13.19,81.5-12.52c25.74,0.61,50.51,5.59,72.73,18.48c22.69,13.17,41.46,31.13,56.78,52.73
		C911.03,625.33,925.29,669.69,918.18,719.84z"/>
	<path class="st1" d="M918.18,719.84c7.11-50.14-7.15-94.5-35.98-135.17c-15.32-21.6-34.09-39.56-56.78-52.73
		c-22.22-12.9-47-17.87-72.73-18.48c-27.97-0.67-54.68,6.07-81.5,12.52c-45.77,11.02-89.99,27.04-134.59,41.8
		c-25.11,8.31-49.95,17.46-75.1,25.63c-15.15,4.92-30.87,8.12-45.99,13.15c-17.21,5.72-34.89,9.58-52.41,13.95
		c-39.32,9.81-79.16,16.21-119.93,14.3c-27.72-1.3-55.09-5.23-81.5-13.66c-14.38-4.59-28.95-9.08-42.59-15.76
		c-23.09-11.31-46.22-22.63-66.11-39.35c15.42-7.11,31.53-12.43,48.35-14.28c7.73-0.85,15.6-2.23,23.46-1.82
		c14.26,0.74,25.94-5.34,36.43-13.95c25.21-20.68,37.36-48.39,42.28-79.92c1.74-11.17,2.58-22.39,2.75-33.68
		c13.64,0.55,27.19,0.99,40.86-1.07c23.11-3.48,46.07-8.01,68.48-14.15c17.42-4.77,35.02-9.47,51.99-16.22
		c19.01-7.57,38.82-13.09,58.12-19.95c21.76-7.73,43.31-16.08,65.03-23.92c9.44-3.41,19.08-6.19,28.82-8.78
		c14.73-3.92,28.55-10.79,43.69-13.91c9.8-2.02,19.42-5.25,28.97-8.57c23.12-8.04,47.58-10.22,71.55-14.16
		c34.32-5.64,68.93-4.82,103.5-0.98c8.17,0.91,15.64,5.5,24.13,4.04c1.62,2.33,1.19,5,1.19,7.58c0.01,38.21,0.06,76.41-0.01,114.62
		c-0.04,25.29,4.26,49.76,15.15,72.64c11.46,24.09,29.8,41.21,55.31,49.83c4.57,1.54,9.67,1.79,14.7,1.94
		c31.47,0.93,61.58,6.61,87.42,26.35c19.65,15.02,33.15,33.93,33.83,59.35c0.44,16.26-5.08,31.32-15.4,44.23
		c-16.14,20.2-37.94,31.36-62.12,38.66C920.46,720.2,919.28,719.87,918.18,719.84z M494.23,451c-8.01,0.76-20.64-0.36-33.33,1
		c-16.09,1.72-32,3.72-47.13,9.56c-23.83,9.2-34.05,20.39-32.68,46.94c0.73,14.24,8.67,22.48,19.78,27.87
		c19.37,9.4,40.68,11.23,61.8,13.69c10.24,1.19,20.31,0.61,30.41-0.16c11.68-0.89,23.23,1.12,35,0.28
		c22.05-1.57,43.48-5.02,63.91-13.58c26.63-11.15,31.42-34.31,21.11-56.45c-6.28-13.5-20.57-17.52-33.78-21.16
		C553.01,451.75,526,450.27,494.23,451z"/>
	<path class="st0" d="M791.39,304.72c-8.49,1.46-15.97-3.14-24.13-4.04c-34.57-3.84-69.18-4.66-103.5,0.98
		c-23.97,3.94-48.43,6.12-71.55,14.16c-9.56,3.32-19.18,6.55-28.97,8.57c-15.14,3.12-28.96,9.99-43.69,13.91
		c-9.74,2.59-19.38,5.37-28.82,8.78c-21.73,7.84-43.27,16.18-65.03,23.92c-19.3,6.86-39.11,12.38-58.12,19.95
		c-16.97,6.76-34.57,11.45-51.99,16.22c-22.41,6.14-45.37,10.68-68.48,14.15c-13.67,2.06-27.22,1.62-40.86,1.07
		c-0.06-33.57-0.15-67.15-0.17-100.72c-0.03-53.99,0.31-107.98-0.13-161.96c-0.26-31.9,7.67-61.14,24.77-87.98
		c2.52,2.54,4.5-0.11,6.37-0.96c18.57-8.42,37.27-16.5,56.53-23.21c22.96-8,46.44-12.34,70.78-8.99
		c27.93,3.84,51.4,16.81,72.1,35.66c14.08,12.82,27.11,26.78,42.17,38.52c20.88,16.28,44.11,27.21,70.62,29.63
		c35.16,3.21,68.35-4.68,100.1-19.59c21.21-9.96,41.03-22.2,59.35-36.7c12.95-10.25,24.76-21.89,36.5-33.52
		c1.38-1.37,3.01-2.65,2.92-4.92c20.97,19.76,33.26,44.46,40.39,71.95c3.68,14.21,4.21,28.76,4.14,43.42
		c-0.22,45.02-0.06,90.04-0.15,135.06C792.52,300.25,793.86,302.87,791.39,304.72z M498.65,275.67c9.7,0.89,19.24-1.27,28.87-1.27
		c9.64,0,19.18-1.37,28.61-2.9c14.23-2.31,28.16-5.81,41.16-12.71c19.88-10.55,23.76-27.34,18.66-48.26
		c-3.51-14.41-15.8-20.02-28.18-24.54c-30.41-11.11-62.39-11.31-94.09-11.55c-15.82-0.12-31.86,0.77-47.66,3.48
		c-15.84,2.72-31.02,6.73-45.57,14.06c-23.4,11.78-28.18,53.32-2.99,66.16c4.04,2.06,8.13,4.12,12.38,5.69
		C438.56,274.4,468.71,274.34,498.65,275.67z"/>
	<path class="st1" d="M748.15,47.63c0.08,2.27-1.55,3.55-2.92,4.92c-11.75,11.64-23.55,23.27-36.5,33.52
		c-18.32,14.5-38.14,26.74-59.35,36.7c-31.75,14.91-64.94,22.8-100.1,19.59c-26.51-2.42-49.74-13.36-70.62-29.63
		c-15.07-11.74-28.09-25.71-42.17-38.52c-20.7-18.85-44.17-31.81-72.1-35.66c-24.33-3.35-47.82,1-70.78,8.99
		c-19.27,6.71-37.97,14.79-56.53,23.21c-1.87,0.85-3.85,3.5-6.37,0.96c13.04-20.74,30.21-37.1,51.29-49.63
		c16.95-10.07,35.21-16.33,54.29-20.46c5.25-1.14,10.75-1.48,16.14-1.48c94.17-0.09,188.34-0.27,282.51,0.05
		c36.45,0.12,69.45,11.07,98.09,34.33C738.24,38.74,742.52,43.96,748.15,47.63z"/>
	<path class="st1" d="M209.85,879.77c2.14-4.79,4.19-9.62,6.44-14.35c14.74-31.08,31.22-42.09,70.59-40.37
		c19.34,0.85,36.34,8.77,52.92,18.24c25.78,14.72,52.68,26.87,82.29,31.84c7.42,1.24,14.86,0.95,22.31,0.65
		c3.04,5.16,3.25,11.16,3.96,16.75c4.96,39.07-7.88,66.32-44.89,87.53c-17.18,9.85-35.84,14.54-55.42,17.33
		c-32.04,4.57-60.78-2.15-85.65-22.72c-20.6-17.03-35.29-38.64-44.44-63.82C214.29,900.76,210.1,890.76,209.85,879.77z"/>
	<path class="st1" d="M550.3,896.54c31.22,2.85,59.6-8.39,88.25-18.03c34.69-11.68,68.85-25,104.82-32.53
		c16.17-3.38,32.46-5.37,49.02-4.63c0.94,39.77-8.85,76.54-32.33,108.87c-16.97,23.36-38.69,40.9-67.71,47.22
		c-14.1,3.07-28.37,2.47-42.76,0.91c-19.51-2.12-37.68-7.89-54.7-17.37c-21.85-12.17-37.97-29.28-44.2-54.17
		C548.2,916.83,548.04,906.65,550.3,896.54z"/>
</g>
</svg>
